<svg xmlns="http://www.w3.org/2000/svg" viewBox="0 0 102.92 98.13"><defs><style>.cls-1{fill:#4b4a49;}.cls-2{fill:#6bc7b9;}</style></defs><g id="Layer_2" data-name="Layer 2"><g id="V3"><path class="cls-1" d="M53.86,0a49.06,49.06,0,0,0-49,47.49,14.3,14.3,0,0,1,3.58-.16l4.67-10.86A28.89,28.89,0,0,1,50,21l-4-10a4.5,4.5,0,0,1,8.36-3.33L60.3,22.41a16.09,16.09,0,1,1,11,28.42h-.66A16.11,16.11,0,0,1,54.52,35.38a.85.85,0,0,0,0-.16L40.06,41a4.45,4.45,0,0,1-1.66.32,4.5,4.5,0,0,1-1.67-8.68L45.8,29A19.89,19.89,0,0,0,21.35,40L16.71,50.81a14.34,14.34,0,0,1,4.35,6.53A13.79,13.79,0,0,1,21.49,59l36.27,6.26A16,16,0,1,1,71.87,88.71a15.68,15.68,0,0,1-4-.53,15.89,15.89,0,0,1-9.75-7.38,16.12,16.12,0,0,1-2-5.66L19.92,68.89a14.43,14.43,0,0,1-7.46,6.5A49.06,49.06,0,1,0,53.86,0Z"/><path class="cls-1" d="M70.11,79.48h0A7,7,0,1,0,73.64,66a6.7,6.7,0,0,0-1.76-.23,7,7,0,0,0-6,10.5A6.91,6.91,0,0,0,70.11,79.48Z"/><path class="cls-1" d="M10.5,55.4a7.21,7.21,0,1,0,3.14,9.71A7.22,7.22,0,0,0,10.5,55.4Z"/><circle class="cls-2" cx="70.61" cy="34.74" r="9.52"/></g></g></svg>