<svg xmlns="http://www.w3.org/2000/svg" viewBox="0 0 79.65 70.04"><defs><style>.cls-1{fill:#4b4a49;}</style></defs><g id="Layer_2" data-name="Layer 2"><g id="Layer_1-2" data-name="Layer 1"><path class="cls-1" d="M39.83,50.81a12.7,12.7,0,1,0-13-12.7A12.87,12.87,0,0,0,39.83,50.81Z"/><path class="cls-1" d="M27.88,0,20.59,7.78H8a7.9,7.9,0,0,0-8,7.78v46.7A7.9,7.9,0,0,0,8,70H71.69a7.89,7.89,0,0,0,8-7.78V15.56a7.89,7.89,0,0,0-8-7.78H59.06L51.77,0Zm12,58.37A19.7,19.7,0,0,1,19.91,38.91,19.69,19.69,0,0,1,39.83,19.46,19.69,19.69,0,0,1,59.74,38.91,19.7,19.7,0,0,1,39.83,58.37Z"/></g></g></svg>