<svg xmlns="http://www.w3.org/2000/svg" viewBox="0 0 92.15 68.67"><defs><style>.cls-1{fill:#4b4a49;}</style></defs><g id="Layer_2" data-name="Layer 2"><g id="Layer_1-2" data-name="Layer 1"><path class="cls-1" d="M63.06,7.12l-1,1.23a23.1,23.1,0,0,1,1.45,8.33,22.39,22.39,0,0,1-1,6.5l.36.25-.49.24-.72,1.72,5,4.17v.12a33.85,33.85,0,0,1,10,24.65v.49A26,26,0,0,0,86,51.75q6.15-3.18,6.15-8v-.12A21.29,21.29,0,0,0,86,28.33a20.79,20.79,0,0,0-6.88-4.9,11.39,11.39,0,0,0,3.26-8.09,11.54,11.54,0,0,0-3.26-8.22A11,11,0,0,0,71,3.69,10.81,10.81,0,0,0,63.06,7.12Z"/><path class="cls-1" d="M66.12,32.74a30.07,30.07,0,0,0-6.88-5.27l-2.17-1.11A14.85,14.85,0,0,0,61.3,15.7,15.35,15.35,0,0,0,57,4.66,14.35,14.35,0,0,0,46.2,0,14,14,0,0,0,35.58,4.66a15.13,15.13,0,0,0-4.47,11,14.85,14.85,0,0,0,4.23,10.66L33,27.47a34.54,34.54,0,0,0-6.88,5.27A28.76,28.76,0,0,0,18,53.34v.86q.48,5.88,8.21,10,8.34,4.43,20,4.42t19.92-4.42q7.86-4.17,8.34-10v-.86A28.51,28.51,0,0,0,66.12,32.74Z"/><path class="cls-1" d="M28.73,16.68A21.72,21.72,0,0,1,30.3,8.35l-1-1.23a11,11,0,0,0-8.09-3.43,10.94,10.94,0,0,0-8.09,3.43A11.54,11.54,0,0,0,9.9,15.34a11.39,11.39,0,0,0,3.26,8.09,19.12,19.12,0,0,0-6.88,4.9A21,21,0,0,0,0,43.66v.12q.12,4.78,6.28,8a25.84,25.84,0,0,0,9.29,3.07v-.49a33.82,33.82,0,0,1,10-24.65v-.12a34,34,0,0,1,4.95-4.17l-.61-1.59-.6-.37.36-.37A21.21,21.21,0,0,1,28.73,16.68Z"/></g></g></svg>