<svg xmlns="http://www.w3.org/2000/svg" viewBox="0 0 77 91"><defs><style>.cls-1{fill:#4b4a49;}</style></defs><g id="Layer_2" data-name="Layer 2"><g id="Layer_1-2" data-name="Layer 1"><path class="cls-1" d="M67.38,30.33H62.56V21.67C62.56,9.71,51.78,0,38.5,0S14.44,9.71,14.44,21.67v8.66H9.63C4.33,30.33,0,34.23,0,39V82.33C0,87.1,4.33,91,9.63,91H67.38C72.67,91,77,87.1,77,82.33V39C77,34.23,72.67,30.33,67.38,30.33Zm-28.88,39c-5.29,0-9.62-3.9-9.62-8.66S33.21,52,38.5,52s9.63,3.9,9.63,8.67S43.79,69.33,38.5,69.33Zm14.92-39H23.58V21.67c0-7.41,6.69-13.44,14.92-13.44s14.92,6,14.92,13.44Z"/></g></g></svg>